<svg width="15" height="15" viewBox="0 0 15 15" fill="none" xmlns="http://www.w3.org/2000/svg">
<path d="M11.5619 7.21388H4.59669L6.72852 4.65333C6.82821 4.5334 6.87617 4.37878 6.86185 4.22349C6.84753 4.06819 6.77211 3.92495 6.65218 3.82526C6.53225 3.72558 6.37762 3.67762 6.22233 3.69194C6.06704 3.70626 5.92379 3.78168 5.82411 3.90161L2.8877 7.4253C2.86794 7.45333 2.85028 7.48277 2.83484 7.5134C2.83484 7.54276 2.83484 7.56038 2.79373 7.58974C2.76711 7.65708 2.75318 7.72876 2.75262 7.80116C2.75318 7.87357 2.76711 7.94525 2.79373 8.01258C2.79373 8.04195 2.79373 8.05957 2.83484 8.08893C2.85028 8.11955 2.86794 8.149 2.8877 8.17702L5.82411 11.7007C5.87933 11.767 5.94847 11.8203 6.02663 11.8569C6.10479 11.8934 6.19004 11.9123 6.27632 11.9121C6.41354 11.9124 6.54652 11.8646 6.65218 11.7771C6.71165 11.7278 6.7608 11.6672 6.79683 11.5989C6.83286 11.5306 6.85506 11.4558 6.86215 11.3789C6.86924 11.3019 6.86109 11.2244 6.83816 11.1506C6.81523 11.0769 6.77798 11.0083 6.72852 10.949L4.59669 8.38845H11.5619C11.7176 8.38845 11.867 8.32657 11.9771 8.21643C12.0873 8.1063 12.1491 7.95692 12.1491 7.80116C12.1491 7.64541 12.0873 7.49603 11.9771 7.38589C11.867 7.27576 11.7176 7.21388 11.5619 7.21388Z" fill="#F53838"/>
</svg>
