<svg width="16" height="15" viewBox="0 0 16 15" fill="none" xmlns="http://www.w3.org/2000/svg">
<path d="M3.92642 7.21388H10.8916L8.75976 4.65333C8.66007 4.5334 8.61211 4.37878 8.62643 4.22349C8.64075 4.06819 8.71617 3.92495 8.8361 3.82526C8.95604 3.72558 9.11066 3.67762 9.26595 3.69194C9.42124 3.70626 9.56449 3.78168 9.66417 3.90161L12.6006 7.4253C12.6203 7.45333 12.638 7.48277 12.6534 7.5134C12.6534 7.54276 12.6534 7.56038 12.6945 7.58974C12.7212 7.65708 12.7351 7.72876 12.7357 7.80116C12.7351 7.87357 12.7212 7.94525 12.6945 8.01258C12.6945 8.04195 12.6945 8.05957 12.6534 8.08893C12.638 8.11955 12.6203 8.149 12.6006 8.17702L9.66417 11.7007C9.60895 11.767 9.53981 11.8203 9.46165 11.8569C9.38349 11.8934 9.29824 11.9123 9.21196 11.9121C9.07474 11.9124 8.94176 11.8646 8.8361 11.7771C8.77664 11.7278 8.72748 11.6672 8.69145 11.5989C8.65542 11.5306 8.63322 11.4558 8.62613 11.3789C8.61904 11.3019 8.62719 11.2244 8.65012 11.1506C8.67305 11.0769 8.71031 11.0083 8.75976 10.949L10.8916 8.38845H3.92642C3.77067 8.38845 3.62129 8.32657 3.51115 8.21643C3.40102 8.1063 3.33914 7.95692 3.33914 7.80116C3.33914 7.64541 3.40102 7.49603 3.51115 7.38589C3.62129 7.27576 3.77067 7.21388 3.92642 7.21388Z" fill="white"/>
</svg>
