<svg width="12" height="12" viewBox="0 0 12 12" fill="none" xmlns="http://www.w3.org/2000/svg">
<path d="M5.07153 8.20189C5.00985 8.20201 4.94876 8.18996 4.89176 8.16642C4.83476 8.14287 4.78297 8.10831 4.73936 8.0647L2.74636 6.07123C2.70146 6.02792 2.66563 5.9761 2.64096 5.9188C2.6163 5.8615 2.6033 5.79985 2.60271 5.73747C2.60213 5.67509 2.61397 5.61322 2.63755 5.55546C2.66114 5.4977 2.69598 5.44522 2.74007 5.40108C2.78415 5.35694 2.83658 5.32201 2.8943 5.29835C2.95202 5.27468 3.01388 5.26275 3.07626 5.26325C3.13865 5.26375 3.20031 5.27666 3.25764 5.30125C3.31498 5.32583 3.36685 5.36158 3.41022 5.40642L5.07106 7.06726L8.0615 4.07776C8.14959 3.9896 8.2691 3.94005 8.39373 3.94C8.51836 3.93996 8.63791 3.98943 8.72606 4.07752C8.81422 4.16562 8.86377 4.28513 8.86382 4.40976C8.86386 4.53439 8.81439 4.65393 8.7263 4.74209L5.40369 8.0647C5.36008 8.10831 5.30829 8.14287 5.25129 8.16642C5.19429 8.18996 5.1332 8.20201 5.07153 8.20189Z" fill="#2FAB73"/>
</svg>
